<svg width="25" height="25" viewBox="0 0 25 25" fill="none" xmlns="http://www.w3.org/2000/svg">
<path d="M12.4983 9.11468C12.6424 9.11468 12.7591 8.998 12.7591 8.85386V7.81404C12.7591 7.6699 12.6424 7.55322 12.4983 7.55322C12.3542 7.55322 12.2375 7.6699 12.2375 7.81404V8.85386C12.2375 8.998 12.3542 9.11468 12.4983 9.11468Z" fill="#E47BBD"/>
<path d="M12.4983 16.8395C12.6424 16.8395 12.7591 16.7229 12.7591 16.5787V9.89363C12.7591 9.74949 12.6424 9.63281 12.4983 9.63281C12.3542 9.63281 12.2375 9.74949 12.2375 9.89363V16.5822C12.2375 16.7263 12.3542 16.8395 12.4983 16.8395Z" fill="#E47BBD"/>
<path d="M20.3844 7.01807C20.2403 7.01807 20.1236 7.13475 20.1236 7.27888V18.1679H13.4935C13.3596 18.1679 13.2361 18.2297 13.1571 18.3395L12.9341 18.6003H12.059L11.8359 18.3395C11.757 18.2331 11.6334 18.1679 11.4996 18.1679H4.86941V7.27888C4.86941 7.13475 4.75273 7.01807 4.60859 7.01807C4.46446 7.01807 4.34778 7.13475 4.34778 7.27888V18.4287C4.34778 18.5728 4.46446 18.6895 4.60859 18.6895H11.4515L11.7432 19.0293C11.7913 19.0876 11.8634 19.1185 11.9423 19.1185H13.0576C13.1331 19.1185 13.2052 19.0842 13.2567 19.0293L13.5484 18.6895H20.3913C20.5354 18.6895 20.6521 18.5728 20.6521 18.4287V7.27888C20.6453 7.13475 20.5286 7.01807 20.3844 7.01807Z" fill="#E47BBD"/>
<path d="M5.90926 6.49622H11.5031C11.8153 6.49622 12.107 6.65409 12.2821 6.9149C12.3301 6.98697 12.4125 7.03158 12.4983 7.03158C12.5841 7.03158 12.6664 6.98697 12.7145 6.9149C12.8895 6.65409 13.1812 6.49622 13.4935 6.49622H19.0838V17.1279H13.4935C13.1194 17.1279 12.7625 17.272 12.4983 17.5225C12.2306 17.272 11.8771 17.1279 11.5031 17.1279H5.90926V6.49622ZM5.64845 17.6495H11.4996C11.8119 17.6495 12.1036 17.8073 12.2786 18.0682C12.3267 18.1402 12.409 18.1848 12.4948 18.1848C12.5806 18.1848 12.663 18.1402 12.711 18.0682C12.8861 17.8073 13.1778 17.6495 13.49 17.6495H19.3447C19.4888 17.6495 19.6055 17.5328 19.6055 17.3887V6.23884C19.6055 6.09471 19.4888 5.97803 19.3447 5.97803H13.4935C13.1194 5.97803 12.7625 6.12216 12.4983 6.37268C12.2306 6.12216 11.8771 5.97803 11.4996 5.97803H5.64845C5.50431 5.97803 5.38763 6.09471 5.38763 6.23884V17.3887C5.38763 17.5328 5.50431 17.6495 5.64845 17.6495Z" fill="#E47BBD"/>
<path d="M11.1084 7.36426H7.03486C6.89073 7.36426 6.77405 7.48094 6.77405 7.62507C6.77405 7.76921 6.89073 7.88589 7.03486 7.88589H11.1084C11.2525 7.88589 11.3692 7.76921 11.3692 7.62507C11.3692 7.48094 11.2525 7.36426 11.1084 7.36426Z" fill="#E47BBD"/>
<path d="M11.1084 8.4043H7.03486C6.89073 8.4043 6.77405 8.52098 6.77405 8.66511C6.77405 8.80925 6.89073 8.92593 7.03486 8.92593H11.1084C11.2525 8.92593 11.3692 8.80925 11.3692 8.66511C11.3692 8.52098 11.2525 8.4043 11.1084 8.4043Z" fill="#E47BBD"/>
<path d="M11.1084 9.44434H7.03486C6.89073 9.44434 6.77405 9.56102 6.77405 9.70515C6.77405 9.84928 6.89073 9.96597 7.03486 9.96597H11.1084C11.2525 9.96597 11.3692 9.84928 11.3692 9.70515C11.3692 9.56102 11.2525 9.44434 11.1084 9.44434Z" fill="#E47BBD"/>
<path d="M11.1084 10.4873H7.03486C6.89073 10.4873 6.77405 10.604 6.77405 10.7481C6.77405 10.8923 6.89073 11.0089 7.03486 11.0089H11.1084C11.2525 11.0089 11.3692 10.8923 11.3692 10.7481C11.3692 10.604 11.2525 10.4873 11.1084 10.4873Z" fill="#E47BBD"/>
<path d="M11.1084 11.5273H7.03486C6.89073 11.5273 6.77405 11.644 6.77405 11.7882C6.77405 11.9323 6.89073 12.049 7.03486 12.049H11.1084C11.2525 12.049 11.3692 11.9323 11.3692 11.7882C11.3692 11.644 11.2525 11.5273 11.1084 11.5273Z" fill="#E47BBD"/>
<path d="M7.03486 13.0851H9.07334C9.21747 13.0851 9.33415 12.9684 9.33415 12.8243C9.33415 12.6802 9.21747 12.5635 9.07334 12.5635H7.03486C6.89073 12.5635 6.77405 12.6802 6.77405 12.8243C6.77405 12.9719 6.89073 13.0851 7.03486 13.0851Z" fill="#E47BBD"/>
<path d="M13.5379 12.1002H17.6114C17.7556 12.1002 17.8722 11.9836 17.8722 11.8394C17.8722 11.6953 17.7556 11.5786 17.6114 11.5786H13.5379C13.3938 11.5786 13.2771 11.6953 13.2771 11.8394C13.2771 11.9836 13.3938 12.1002 13.5379 12.1002Z" fill="#E47BBD"/>
<path d="M13.5379 13.1403H17.6114C17.7556 13.1403 17.8722 13.0236 17.8722 12.8795C17.8722 12.7353 17.7556 12.6187 17.6114 12.6187H13.5379C13.3938 12.6187 13.2771 12.7353 13.2771 12.8795C13.2771 13.0236 13.3938 13.1403 13.5379 13.1403Z" fill="#E47BBD"/>
<path d="M13.5379 14.1798H17.6114C17.7556 14.1798 17.8722 14.0632 17.8722 13.919C17.8722 13.7749 17.7556 13.6582 17.6114 13.6582H13.5379C13.3938 13.6582 13.2771 13.7749 13.2771 13.919C13.2771 14.0632 13.3938 14.1798 13.5379 14.1798Z" fill="#E47BBD"/>
<path d="M13.5379 15.2199H17.6114C17.7556 15.2199 17.8722 15.1032 17.8722 14.9591C17.8722 14.8149 17.7556 14.6982 17.6114 14.6982H13.5379C13.3938 14.6982 13.2771 14.8149 13.2771 14.9591C13.2771 15.1032 13.3938 15.2199 13.5379 15.2199Z" fill="#E47BBD"/>
<path d="M13.5379 16.2594H15.5764C15.7205 16.2594 15.8372 16.1427 15.8372 15.9986C15.8372 15.8545 15.7205 15.7378 15.5764 15.7378H13.5379C13.3938 15.7378 13.2771 15.8545 13.2771 15.9986C13.2771 16.1427 13.3938 16.2594 13.5379 16.2594Z" fill="#E47BBD"/>
<circle cx="12.5" cy="12.5" r="12" stroke="#E47BBD"/>
</svg>
